<?xml version="1.0" encoding="utf-8"?>
<svg version="1.1" xmlns="http://www.w3.org/2000/svg" xmlns:xlink="http://www.w3.org/1999/xlink" viewBox="0 0 1024 1024" xml:space="preserve">
  <path fill="#F56C6C" d="M512,952C269,952,72,755,72,512S269,72,512,72s440,197,440,440S755,952,512,952z M579.7,512l101.6-101.6
	c18.7-18.7,18.7-49,0-67.7c-18.7-18.7-49-18.7-67.7,0l0,0L512,444.3L410.4,342.7c-18.7-18.7-49-18.7-67.7,0s-18.7,49,0,67.7
	L444.3,512L342.7,613.6c-18.7,18.7-18.7,49,0,67.7c18.7,18.7,49,18.7,67.7,0L512,579.7l101.6,101.6c18.7,18.7,49,18.7,67.7,0
	c18.7-18.7,18.7-49,0-67.7L579.7,512z"/>
</svg>
